<?xml version="1.0" standalone="no"?>
<!DOCTYPE svg PUBLIC "-//W3C//DTD SVG 20010904//EN"
 "http://www.w3.org/TR/2001/REC-SVG-20010904/DTD/svg10.dtd">
<svg version="1.0" xmlns="http://www.w3.org/2000/svg"
 width="110.000000pt" height="110.000000pt" viewBox="0 0 110.000000 110.000000"
 preserveAspectRatio="xMidYMid meet">
<metadata>
Created by potrace 1.14, written by Peter Selinger 2001-2017
</metadata>
<g transform="translate(0.000000,110.000000) scale(0.100000,-0.100000)"
fill="#000000" stroke="none">
<path d="M0 650 l0 -450 50 0 50 0 0 50 0 50 50 0 c47 0 50 2 50 25 0 23 3 25
50 25 47 0 50 2 50 25 0 23 3 25 50 25 47 0 50 2 50 25 0 23 -3 25 -50 25
l-50 0 0 75 0 75 -50 0 -50 0 0 75 0 75 50 0 c47 0 50 2 50 25 0 23 3 25 50
25 47 0 50 2 50 25 0 23 3 25 50 25 47 0 50 2 50 25 0 23 3 25 50 25 l50 0 0
50 0 50 50 0 50 0 0 -100 0 -100 50 0 c47 0 50 -2 50 -25 0 -23 3 -25 50 -25
l50 0 0 -75 0 -75 -50 0 -50 0 0 -75 0 -75 -50 0 c-47 0 -50 -2 -50 -25 0 -23
3 -25 50 -25 47 0 50 -2 50 -25 0 -23 3 -25 50 -25 47 0 50 -2 50 -25 0 -23 3
-25 50 -25 47 0 50 -2 50 -25 0 -23 -3 -25 -50 -25 -47 0 -50 -2 -50 -25 l0
-25 100 0 100 0 0 450 0 450 -550 0 -550 0 0 -450z"/>
<path d="M500 275 c0 -23 3 -25 50 -25 47 0 50 2 50 25 0 23 -3 25 -50 25 -47
0 -50 -2 -50 -25z"/>
<path d="M750 225 c0 -20 5 -25 25 -25 20 0 25 -5 25 -25 0 -20 5 -25 25 -25
23 0 25 3 25 50 l0 50 -50 0 c-47 0 -50 -2 -50 -25z"/>
<path d="M500 175 c0 -23 3 -25 50 -25 47 0 50 2 50 25 0 23 -3 25 -50 25 -47
0 -50 -2 -50 -25z"/>
<path d="M0 25 l0 -25 550 0 550 0 0 25 0 25 -550 0 -550 0 0 -25z"/>
</g>
</svg>
